<svg width="24" height="24" viewBox="0 0 24 24" fill="none" xmlns="http://www.w3.org/2000/svg">
<path fill-rule="evenodd" clip-rule="evenodd" d="M12 4.1C9.10704 4.1 6.76895 6.4381 6.76895 9.33102C6.76895 10.9022 7.64195 13.0006 8.92149 15.1444C9.95218 16.8713 11.1375 18.4512 12.0037 19.5316C12.8675 18.45 14.0502 16.8708 15.0793 15.145C16.3579 13.0008 17.231 10.9024 17.231 9.33102C17.231 6.4381 14.8929 4.1 12 4.1ZM12 13.3707C9.76962 13.3707 7.96032 11.5614 7.96032 9.33102C7.96032 7.10068 9.76962 5.29137 12 5.29137C14.2303 5.29137 16.0396 7.10068 16.0396 9.33102C16.0396 11.5614 14.2303 13.3707 12 13.3707ZM5.16895 9.33102C5.16895 5.55444 8.22339 2.5 12 2.5C15.7765 2.5 18.831 5.55444 18.831 9.33102C18.831 13.4004 14.5177 19.0116 12.7514 21.1487C12.361 21.6171 11.6487 21.6171 11.2583 21.1487C9.48225 19.0116 5.16895 13.4004 5.16895 9.33102ZM9.56032 9.33102C9.56032 10.6777 10.6533 11.7707 12 11.7707C13.3467 11.7707 14.4396 10.6777 14.4396 9.33102C14.4396 7.98433 13.3467 6.89137 12 6.89137C10.6533 6.89137 9.56032 7.98433 9.56032 9.33102Z" fill="#000"/>
</svg>
