<svg width="28" height="28" viewBox="0 0 28 28" fill="none" xmlns="http://www.w3.org/2000/svg">
<path d="M13.9998 27.6904C9.33814 27.6904 5.55877 23.9114 5.55877 19.2494C5.55877 16.4443 6.94445 13.8402 9.26274 12.2647C9.26274 9.79432 9.26274 7.32424 9.26274 4.85382C9.26274 4.47615 9.56897 4.16958 9.94665 4.16958H10.7301V0.993763C10.7301 0.616091 11.0363 0.309521 11.414 0.309521H16.5853C16.963 0.309521 17.2696 0.616091 17.2696 0.993763V4.16958H18.053C18.4307 4.16958 18.737 4.47615 18.737 4.85382C18.737 7.32424 18.737 9.79432 18.737 12.2647C21.0552 13.8399 22.4409 16.4443 22.4409 19.2494C22.4409 23.9111 18.6616 27.6904 13.9998 27.6904ZM12.0983 4.16958H15.9014V1.67767H12.0983V4.16958ZM15.8343 16.1899C16.7338 16.1899 16.7338 17.5578 15.8343 17.5578H12.1654C11.2655 17.5578 11.2655 16.1899 12.1654 16.1899H13.3159V15.3566H12.1654C11.2655 15.3566 11.2655 13.9887 12.1654 13.9887H13.3159V11.2332H10.6306L10.6289 12.6348C10.6289 12.8646 10.5125 13.0889 10.3018 13.2175C8.20115 14.5073 6.92692 16.7846 6.92692 19.2494C6.92692 23.1557 10.0935 26.3223 13.9998 26.3223C17.9062 26.3223 21.0728 23.1557 21.0728 19.2494C21.0728 16.8001 19.8147 14.5357 17.7356 13.241C17.5176 13.1266 17.3688 12.898 17.3688 12.6348V11.2332H14.6838V13.9887L15.8343 13.9887C16.7338 13.9887 16.7338 15.3566 15.8343 15.3566L14.6838 15.3566V16.1899H15.8343ZM10.6306 9.86509H17.3688L17.3688 8.4728H10.6306V9.86509ZM10.6306 7.10497H17.3688V5.53773C15.1229 5.53773 12.8767 5.53773 10.6306 5.53773L10.6306 7.10497Z" fill="#000"/>
</svg>
