<svg width="24" height="24" viewBox="0 0 24 24" fill="none" xmlns="http://www.w3.org/2000/svg">
<path fill-rule="evenodd" clip-rule="evenodd" d="M4.1 12C4.1 7.63966 7.63966 4.1 12 4.1C16.3603 4.1 19.9 7.63966 19.9 12C19.9 16.3603 16.3603 19.9 12 19.9C7.63966 19.9 4.1 16.3603 4.1 12ZM12 2.5C6.756 2.5 2.5 6.756 2.5 12C2.5 17.244 6.756 21.5 12 21.5C17.244 21.5 21.5 17.244 21.5 12C21.5 6.756 17.244 2.5 12 2.5ZM12 6.04747C13.577 6.04747 14.85 7.32047 14.85 8.89746C14.85 10.4745 13.577 11.7475 12 11.7475C10.423 11.7475 9.15 10.4745 9.15 8.89746C9.15 7.32047 10.423 6.04747 12 6.04747ZM12 18.84C9.625 18.84 7.5255 17.624 6.3 15.781C6.3285 13.8905 10.1 12.855 12 12.855C13.8905 12.855 17.6715 13.8905 17.7 15.781C16.4745 17.624 14.375 18.84 12 18.84Z" fill="#000"/>
</svg>
