<svg width="24" height="24" viewBox="0 0 24 24" fill="none" xmlns="http://www.w3.org/2000/svg">
<path fill-rule="evenodd" clip-rule="evenodd" d="M2.75501 5.50532C2.66031 3.97664 3.92269 2.75 5.39628 2.75H7.03347C8.3807 2.75 9.50332 3.75536 9.66148 5.08656L9.66181 5.0893L9.93624 7.47412C10.0285 8.27814 9.75116 9.07312 9.18207 9.64221L7.82398 11.0003C9.03683 13.1693 10.8359 14.9626 13.0003 16.1756L14.3484 14.8275C14.9174 14.2585 15.712 13.9811 16.5158 14.0732C16.5157 14.0732 16.516 14.0733 16.5158 14.0732L18.9196 14.3477L18.8345 15.0928L18.923 14.3481C20.2493 14.5057 21.2613 15.6248 21.2501 16.9699V18.6038C21.2501 20.0774 20.0235 21.3398 18.4948 21.2451C10.0451 20.7201 3.28003 13.9651 2.75501 5.50532ZM18.7476 15.8378C18.7471 15.8377 18.7466 15.8377 18.746 15.8376L16.3457 15.5636C15.9952 15.5233 15.6539 15.6434 15.4091 15.8882L13.2827 18.0145L12.7973 17.7676C9.97861 16.3333 7.66733 14.0325 6.23206 11.2018L5.98614 10.7168L8.12141 8.58155C8.36618 8.33678 8.48627 7.99589 8.44605 7.64536L8.17196 5.26353C8.17191 5.26312 8.17186 5.26271 8.17181 5.2623C8.10231 4.68249 7.6164 4.25 7.03347 4.25H5.39628C4.73111 4.25 4.21434 4.80251 4.25213 5.4125C4.73024 13.1164 10.8925 19.2698 18.5877 19.748C19.1977 19.7857 19.7501 19.2689 19.7501 18.6038V16.9592C19.7557 16.395 19.3308 15.9079 18.7476 15.8378Z" fill="#000"/>
</svg>
