<svg width="22" height="22" viewBox="0 0 22 22" fill="none" xmlns="http://www.w3.org/2000/svg">
<g clip-path="url(#clip0_702_4127)">
<path d="M11 22C17.0751 22 22 17.0751 22 11C22 4.92487 17.0751 0 11 0C4.92487 0 0 4.92487 0 11C0 17.0751 4.92487 22 11 22Z" fill="url(#paint0_linear_702_4127)"/>
<path d="M16.3539 6.32906L14.3902 16.2334C14.3902 16.2334 14.1152 16.9209 13.359 16.59L8.82578 13.1138L7.17578 12.3189L4.4 11.3865C4.4 11.3865 3.97461 11.2361 3.93164 10.9052C3.88867 10.5744 4.41289 10.3982 4.41289 10.3982L15.4473 6.07125C15.4473 6.06695 16.3539 5.66734 16.3539 6.32906Z" fill="white"/>
<path d="M8.47344 16.1217C8.47344 16.1217 8.34023 16.1088 8.17695 15.5889C8.01367 15.0689 7.17578 12.3189 7.17578 12.3189L13.8402 8.08652C13.8402 8.08652 14.227 7.85449 14.2098 8.08652C14.2098 8.08652 14.2785 8.12949 14.0723 8.31856C13.866 8.51191 8.83867 13.0322 8.83867 13.0322" fill="#D2E4F0"/>
<path d="M10.5617 14.4461L8.76991 16.0832C8.76991 16.0832 8.62811 16.1906 8.47772 16.1219L8.82147 13.084" fill="#B5CFE4"/>
</g>
<defs>
<linearGradient id="paint0_linear_702_4127" x1="11" y1="0" x2="11" y2="21.9197" gradientUnits="userSpaceOnUse">
<stop stop-color="#41BCE7"/>
<stop offset="1" stop-color="#22A6DC"/>
</linearGradient>
<clipPath id="clip0_702_4127">
<rect width="22" height="22" fill="white"/>
</clipPath>
</defs>
</svg>
